<svg width="53" height="53" viewBox="0 0 53 53" fill="none" xmlns="http://www.w3.org/2000/svg">
<path d="M0 6C0 2.68629 2.68629 0 6 0H47C50.3137 0 53 2.68629 53 6V47C53 50.3137 50.3137 53 47 53H6C2.68629 53 0 50.3137 0 47V6Z" fill="#383838"/>
<rect x="1" y="1" width="51" height="46" rx="5" fill="#6A6A6A" stroke="#383838" stroke-width="2"/>
<path d="M19.6852 15C18.0283 15 16.6852 16.3432 16.6852 18V30.3501C16.6852 32.007 18.0283 33.3501 19.6852 33.3501H34.9962C35.9909 33.3501 36.7972 32.5438 36.7972 31.5491C36.7972 30.5545 35.9909 29.7482 34.9962 29.7482H22.3816C21.3424 29.7482 20.5 28.9058 20.5 27.8666C20.5 26.8274 21.3424 25.985 22.3816 25.985H34.3498C35.3469 25.985 36.1552 25.1767 36.1552 24.1795C36.1552 23.1824 35.3469 22.3741 34.3498 22.3741H27.8861C26.8444 22.3741 26 21.5297 26 20.488C26 19.4464 26.8444 18.6019 27.8861 18.6019H34.9962C35.9909 18.6019 36.7972 17.7956 36.7972 16.801C36.7972 15.8063 35.9909 15 34.9962 15H19.6852Z" fill="white"/>
</svg>
